<svg xmlns="http://www.w3.org/2000/svg" width="900" height="520" viewBox="0 0 900 520">
<rect width="100%" height="100%" fill="white"/>
<text x="450" y="36" text-anchor="middle" font-family="Arial" font-size="22" font-weight="700">Sentence Length Distribution</text>
<text x="450" y="62" text-anchor="middle" font-family="Arial" font-size="13" fill="#555">Number of sentence pairs by tokenized sentence length</text>
<line x1="90" y1="435" x2="845" y2="435" stroke="#333"/>
<line x1="90" y1="80" x2="90" y2="435" stroke="#333"/>
<rect x="665" y="88" width="16" height="16" fill="#4e79a7"/><text x="688" y="101" font-family="Arial" font-size="13">English</text>
<rect x="750" y="88" width="16" height="16" fill="#e15759"/><text x="773" y="101" font-family="Arial" font-size="13">Bengali</text>
<line x1="84" y1="435.0" x2="845" y2="435.0" stroke="#e5e5e5"/>
<text x="78" y="439.0" text-anchor="end" font-family="Arial" font-size="12" fill="#555">0</text>
<line x1="84" y1="346.2" x2="845" y2="346.2" stroke="#e5e5e5"/>
<text x="78" y="350.2" text-anchor="end" font-family="Arial" font-size="12" fill="#555">1,037</text>
<line x1="84" y1="257.5" x2="845" y2="257.5" stroke="#e5e5e5"/>
<text x="78" y="261.5" text-anchor="end" font-family="Arial" font-size="12" fill="#555">2,074</text>
<line x1="84" y1="168.8" x2="845" y2="168.8" stroke="#e5e5e5"/>
<text x="78" y="172.8" text-anchor="end" font-family="Arial" font-size="12" fill="#555">3,110</text>
<line x1="84" y1="80.0" x2="845" y2="80.0" stroke="#e5e5e5"/>
<text x="78" y="84.0" text-anchor="end" font-family="Arial" font-size="12" fill="#555">4,147</text>
<rect x="135" y="258.5" width="46" height="176.5" fill="#4e79a7"/>
<text x="158.0" y="250.5" text-anchor="middle" font-family="Arial" font-size="11">2,062</text>
<rect x="205" y="242.2" width="46" height="192.8" fill="#e15759"/>
<text x="228.0" y="234.2" text-anchor="middle" font-family="Arial" font-size="11">2,252</text>
<text x="193.0" y="459" text-anchor="middle" font-family="Arial" font-size="12">1-3 tokens</text>
<rect x="275" y="84.3" width="46" height="350.7" fill="#4e79a7"/>
<text x="298.0" y="76.3" text-anchor="middle" font-family="Arial" font-size="11">4,097</text>
<rect x="345" y="80.0" width="46" height="355.0" fill="#e15759"/>
<text x="368.0" y="72.0" text-anchor="middle" font-family="Arial" font-size="11">4,147</text>
<text x="333.0" y="459" text-anchor="middle" font-family="Arial" font-size="12">4-7 tokens</text>
<rect x="415" y="364.5" width="46" height="70.5" fill="#4e79a7"/>
<text x="438.0" y="356.5" text-anchor="middle" font-family="Arial" font-size="11">823</text>
<rect x="485" y="384.0" width="46" height="51.0" fill="#e15759"/>
<text x="508.0" y="376.0" text-anchor="middle" font-family="Arial" font-size="11">596</text>
<text x="473.0" y="459" text-anchor="middle" font-family="Arial" font-size="12">8-12 tokens</text>
<rect x="555" y="430.9" width="46" height="4.1" fill="#4e79a7"/>
<text x="578.0" y="422.9" text-anchor="middle" font-family="Arial" font-size="11">48</text>
<rect x="625" y="432.0" width="46" height="3.0" fill="#e15759"/>
<text x="648.0" y="424.0" text-anchor="middle" font-family="Arial" font-size="11">35</text>
<text x="613.0" y="459" text-anchor="middle" font-family="Arial" font-size="12">13-20 tokens</text>
<rect x="695" y="435.0" width="46" height="0.0" fill="#4e79a7"/>
<text x="718.0" y="427.0" text-anchor="middle" font-family="Arial" font-size="11">0</text>
<rect x="765" y="435.0" width="46" height="0.0" fill="#e15759"/>
<text x="788.0" y="427.0" text-anchor="middle" font-family="Arial" font-size="11">0</text>
<text x="753.0" y="459" text-anchor="middle" font-family="Arial" font-size="12">21+ tokens</text>
</svg>