<svg xmlns="http://www.w3.org/2000/svg" width="900" height="520" viewBox="0 0 900 520">
<rect width="100%" height="100%" fill="white"/>
<text x="450" y="36" text-anchor="middle" font-family="Arial" font-size="22" font-weight="700">Word-Based Token and Vocabulary Counts</text>
<text x="450" y="62" text-anchor="middle" font-family="Arial" font-size="13" fill="#555">Word tokenization after lowercasing and punctuation removal</text>
<line x1="120" y1="430" x2="840" y2="430" stroke="#333"/>
<line x1="120" y1="80" x2="120" y2="430" stroke="#333"/>
<line x1="114" y1="430.0" x2="840" y2="430.0" stroke="#e5e5e5"/>
<text x="108" y="434.0" text-anchor="end" font-family="Arial" font-size="12" fill="#555">0</text>
<line x1="114" y1="342.5" x2="840" y2="342.5" stroke="#e5e5e5"/>
<text x="108" y="346.5" text-anchor="end" font-family="Arial" font-size="12" fill="#555">8,704</text>
<line x1="114" y1="255.0" x2="840" y2="255.0" stroke="#e5e5e5"/>
<text x="108" y="259.0" text-anchor="end" font-family="Arial" font-size="12" fill="#555">17,408</text>
<line x1="114" y1="167.5" x2="840" y2="167.5" stroke="#e5e5e5"/>
<text x="108" y="171.5" text-anchor="end" font-family="Arial" font-size="12" fill="#555">26,112</text>
<line x1="114" y1="80.0" x2="840" y2="80.0" stroke="#e5e5e5"/>
<text x="108" y="84.0" text-anchor="end" font-family="Arial" font-size="12" fill="#555">34,816</text>
<rect x="120" y="80.0" width="105" height="350.0" fill="#4e79a7"/>
<text x="172.5" y="70.0" text-anchor="middle" font-family="Arial" font-size="13" font-weight="700">34,816</text>
<text x="172.5" y="454" text-anchor="middle" font-family="Arial" font-size="12">English tokens</text>
<rect x="295" y="99.7" width="105" height="330.3" fill="#e15759"/>
<text x="347.5" y="89.7" text-anchor="middle" font-family="Arial" font-size="13" font-weight="700">32,860</text>
<text x="347.5" y="454" text-anchor="middle" font-family="Arial" font-size="12">Bengali tokens</text>
<rect x="470" y="402.2" width="105" height="27.8" fill="#59a14f"/>
<text x="522.5" y="392.2" text-anchor="middle" font-family="Arial" font-size="13" font-weight="700">2,770</text>
<text x="522.5" y="454" text-anchor="middle" font-family="Arial" font-size="12">English unique words</text>
<rect x="645" y="383.4" width="105" height="46.6" fill="#f28e2b"/>
<text x="697.5" y="373.4" text-anchor="middle" font-family="Arial" font-size="13" font-weight="700">4,632</text>
<text x="697.5" y="454" text-anchor="middle" font-family="Arial" font-size="12">Bengali unique words</text>
</svg>